<mxfile host="65bd71144e">
    <diagram id="mzO_CvgGdJ5bJuFoguiS" name="Page-1">
        <mxGraphModel dx="1483" dy="1537" grid="1" gridSize="10" guides="1" tooltips="1" connect="1" arrows="1" fold="1" page="1" pageScale="1" pageWidth="850" pageHeight="1100" math="0" shadow="0">
            <root>
                <mxCell id="0"/>
                <mxCell id="1" parent="0"/>
                <mxCell id="38" style="edgeStyle=orthogonalEdgeStyle;html=1;entryX=0;entryY=0.5;entryDx=0;entryDy=0;" parent="1" source="2" target="26" edge="1">
                    <mxGeometry relative="1" as="geometry"/>
                </mxCell>
                <mxCell id="39" style="edgeStyle=orthogonalEdgeStyle;html=1;entryX=0;entryY=0.5;entryDx=0;entryDy=0;" parent="1" source="2" target="27" edge="1">
                    <mxGeometry relative="1" as="geometry"/>
                </mxCell>
                <mxCell id="40" style="edgeStyle=orthogonalEdgeStyle;html=1;" parent="1" source="2" target="28" edge="1">
                    <mxGeometry relative="1" as="geometry">
                        <Array as="points">
                            <mxPoint x="-420" y="140"/>
                        </Array>
                    </mxGeometry>
                </mxCell>
                <mxCell id="41" style="edgeStyle=orthogonalEdgeStyle;html=1;entryX=0;entryY=0.5;entryDx=0;entryDy=0;" parent="1" source="2" target="30" edge="1">
                    <mxGeometry relative="1" as="geometry"/>
                </mxCell>
                <mxCell id="42" style="edgeStyle=orthogonalEdgeStyle;html=1;entryX=0;entryY=0.5;entryDx=0;entryDy=0;" parent="1" source="2" target="29" edge="1">
                    <mxGeometry relative="1" as="geometry"/>
                </mxCell>
                <mxCell id="2" value="Administratorius" style="html=1;dashed=0;whitespace=wrap;rounded=0;" parent="1" vertex="1">
                    <mxGeometry x="-480" y="620" width="120" height="60" as="geometry"/>
                </mxCell>
                <mxCell id="16" style="edgeStyle=none;html=1;exitX=0.84;exitY=0.869;exitDx=0;exitDy=0;entryX=0.831;entryY=-0.007;entryDx=0;entryDy=0;entryPerimeter=0;exitPerimeter=0;rounded=0;" parent="1" source="3" target="14" edge="1">
                    <mxGeometry relative="1" as="geometry"/>
                </mxCell>
                <mxCell id="3" value="Sistemos&lt;br&gt;back end" style="shape=ellipse;html=1;dashed=0;whitespace=wrap;aspect=fixed;perimeter=ellipsePerimeter;rounded=0;" parent="1" vertex="1">
                    <mxGeometry x="240" y="160" width="120" height="120" as="geometry"/>
                </mxCell>
                <mxCell id="78" style="edgeStyle=orthogonalEdgeStyle;html=1;entryX=1;entryY=0.5;entryDx=0;entryDy=0;" parent="1" source="5" target="70" edge="1">
                    <mxGeometry relative="1" as="geometry">
                        <Array as="points">
                            <mxPoint x="1010" y="260"/>
                        </Array>
                    </mxGeometry>
                </mxCell>
                <mxCell id="79" style="edgeStyle=orthogonalEdgeStyle;html=1;entryX=1;entryY=0.5;entryDx=0;entryDy=0;" parent="1" source="5" target="71" edge="1">
                    <mxGeometry relative="1" as="geometry">
                        <Array as="points">
                            <mxPoint x="1010" y="260"/>
                            <mxPoint x="1010" y="420"/>
                        </Array>
                    </mxGeometry>
                </mxCell>
                <mxCell id="80" style="edgeStyle=orthogonalEdgeStyle;html=1;entryX=1;entryY=0.5;entryDx=0;entryDy=0;" parent="1" source="5" target="72" edge="1">
                    <mxGeometry relative="1" as="geometry">
                        <Array as="points">
                            <mxPoint x="1010" y="260"/>
                            <mxPoint x="1010" y="550"/>
                        </Array>
                    </mxGeometry>
                </mxCell>
                <mxCell id="81" style="edgeStyle=orthogonalEdgeStyle;html=1;entryX=1;entryY=0.5;entryDx=0;entryDy=0;" parent="1" source="5" target="73" edge="1">
                    <mxGeometry relative="1" as="geometry">
                        <Array as="points">
                            <mxPoint x="1010" y="260"/>
                            <mxPoint x="1010" y="640"/>
                        </Array>
                    </mxGeometry>
                </mxCell>
                <mxCell id="5" value="Prisijungęs&lt;br&gt;naudotojas" style="html=1;dashed=0;whitespace=wrap;rounded=0;" parent="1" vertex="1">
                    <mxGeometry x="1040" y="230" width="120" height="60" as="geometry"/>
                </mxCell>
                <mxCell id="60" style="edgeStyle=orthogonalEdgeStyle;html=1;entryX=0.5;entryY=0;entryDx=0;entryDy=0;" parent="1" source="6" target="47" edge="1">
                    <mxGeometry relative="1" as="geometry">
                        <Array as="points">
                            <mxPoint x="890" y="-170"/>
                            <mxPoint x="180" y="-170"/>
                        </Array>
                    </mxGeometry>
                </mxCell>
                <mxCell id="61" style="edgeStyle=orthogonalEdgeStyle;html=1;" parent="1" source="6" target="50" edge="1">
                    <mxGeometry relative="1" as="geometry">
                        <Array as="points">
                            <mxPoint x="890" y="-170"/>
                            <mxPoint x="660" y="-170"/>
                        </Array>
                    </mxGeometry>
                </mxCell>
                <mxCell id="62" style="edgeStyle=orthogonalEdgeStyle;html=1;entryX=0.5;entryY=0;entryDx=0;entryDy=0;" parent="1" source="6" target="52" edge="1">
                    <mxGeometry relative="1" as="geometry">
                        <Array as="points">
                            <mxPoint x="890" y="-170"/>
                            <mxPoint x="1060" y="-170"/>
                        </Array>
                    </mxGeometry>
                </mxCell>
                <mxCell id="63" style="edgeStyle=orthogonalEdgeStyle;html=1;entryX=0.5;entryY=0;entryDx=0;entryDy=0;" parent="1" source="6" target="49" edge="1">
                    <mxGeometry relative="1" as="geometry">
                        <Array as="points">
                            <mxPoint x="530" y="-170"/>
                            <mxPoint x="370" y="-170"/>
                        </Array>
                    </mxGeometry>
                </mxCell>
                <mxCell id="64" style="edgeStyle=orthogonalEdgeStyle;html=1;entryX=0.5;entryY=0;entryDx=0;entryDy=0;" parent="1" source="6" target="51" edge="1">
                    <mxGeometry relative="1" as="geometry">
                        <Array as="points">
                            <mxPoint x="890" y="-170"/>
                            <mxPoint x="820" y="-170"/>
                        </Array>
                    </mxGeometry>
                </mxCell>
                <mxCell id="67" style="edgeStyle=orthogonalEdgeStyle;html=1;entryX=0.5;entryY=0;entryDx=0;entryDy=0;" parent="1" source="6" target="66" edge="1">
                    <mxGeometry relative="1" as="geometry">
                        <Array as="points">
                            <mxPoint x="890" y="-170"/>
                            <mxPoint x="1460" y="-170"/>
                        </Array>
                    </mxGeometry>
                </mxCell>
                <mxCell id="6" value="Naudotojas" style="html=1;dashed=0;whitespace=wrap;rounded=0;" parent="1" vertex="1">
                    <mxGeometry x="830" y="-260" width="120" height="60" as="geometry"/>
                </mxCell>
                <mxCell id="15" style="edgeStyle=none;html=1;exitX=0.167;exitY=0.018;exitDx=0;exitDy=0;exitPerimeter=0;rounded=0;" parent="1" source="14" edge="1">
                    <mxGeometry relative="1" as="geometry">
                        <mxPoint x="260" y="270" as="targetPoint"/>
                    </mxGeometry>
                </mxCell>
                <mxCell id="14" value="Duomenų&lt;br&gt;bazė" style="html=1;dashed=0;whitespace=wrap;rounded=0;" parent="1" vertex="1">
                    <mxGeometry x="240" y="380" width="120" height="60" as="geometry"/>
                </mxCell>
                <mxCell id="18" value="Pateikia &lt;br&gt;informaciją" style="text;html=1;align=center;verticalAlign=middle;resizable=0;points=[];autosize=1;strokeColor=none;fillColor=none;labelBackgroundColor=default;spacing=2;rounded=0;" parent="1" vertex="1">
                    <mxGeometry x="185" y="312" width="80" height="40" as="geometry"/>
                </mxCell>
                <mxCell id="20" value="Gauna užklausą,&lt;br&gt;saugo informaciją" style="text;html=1;align=center;verticalAlign=middle;resizable=0;points=[];autosize=1;strokeColor=none;fillColor=none;labelBackgroundColor=default;spacing=2;rounded=0;" parent="1" vertex="1">
                    <mxGeometry x="335" y="309" width="120" height="40" as="geometry"/>
                </mxCell>
                <mxCell id="89" style="edgeStyle=orthogonalEdgeStyle;html=1;entryX=0;entryY=0.5;entryDx=0;entryDy=0;" parent="1" source="26" target="85" edge="1">
                    <mxGeometry relative="1" as="geometry"/>
                </mxCell>
                <mxCell id="90" style="edgeStyle=orthogonalEdgeStyle;html=1;entryX=0;entryY=0.5;entryDx=0;entryDy=0;" parent="1" source="26" target="84" edge="1">
                    <mxGeometry relative="1" as="geometry"/>
                </mxCell>
                <mxCell id="91" style="edgeStyle=orthogonalEdgeStyle;html=1;entryX=0;entryY=0.5;entryDx=0;entryDy=0;" parent="1" source="26" target="86" edge="1">
                    <mxGeometry relative="1" as="geometry"/>
                </mxCell>
                <mxCell id="92" style="edgeStyle=orthogonalEdgeStyle;html=1;" parent="1" source="26" target="87" edge="1">
                    <mxGeometry relative="1" as="geometry"/>
                </mxCell>
                <mxCell id="26" value="A.1&amp;nbsp;Prekių valdymas" style="rounded=0;whiteSpace=wrap;html=1;" parent="1" vertex="1">
                    <mxGeometry x="-380" y="-160" width="120" height="40" as="geometry"/>
                </mxCell>
                <mxCell id="101" style="edgeStyle=orthogonalEdgeStyle;html=1;entryX=0;entryY=0.5;entryDx=0;entryDy=0;" parent="1" source="27" target="97" edge="1">
                    <mxGeometry relative="1" as="geometry"/>
                </mxCell>
                <mxCell id="102" style="edgeStyle=orthogonalEdgeStyle;html=1;" parent="1" source="27" target="98" edge="1">
                    <mxGeometry relative="1" as="geometry"/>
                </mxCell>
                <mxCell id="27" value="A.2&amp;nbsp;Paskyrų valdymas" style="rounded=0;whiteSpace=wrap;html=1;" parent="1" vertex="1">
                    <mxGeometry x="-380" y="-40" width="120" height="40" as="geometry"/>
                </mxCell>
                <mxCell id="105" style="edgeStyle=orthogonalEdgeStyle;html=1;entryX=0;entryY=0.5;entryDx=0;entryDy=0;" parent="1" source="28" target="103" edge="1">
                    <mxGeometry relative="1" as="geometry"/>
                </mxCell>
                <mxCell id="106" style="edgeStyle=orthogonalEdgeStyle;html=1;entryX=0;entryY=0.5;entryDx=0;entryDy=0;" parent="1" source="28" target="104" edge="1">
                    <mxGeometry relative="1" as="geometry"/>
                </mxCell>
                <mxCell id="28" value="A.3&amp;nbsp;Užsakymų valdymas" style="rounded=0;whiteSpace=wrap;html=1;" parent="1" vertex="1">
                    <mxGeometry x="-380" y="120" width="120" height="40" as="geometry"/>
                </mxCell>
                <mxCell id="123" style="edgeStyle=orthogonalEdgeStyle;html=1;entryX=0;entryY=0.5;entryDx=0;entryDy=0;" parent="1" source="29" target="119" edge="1">
                    <mxGeometry relative="1" as="geometry"/>
                </mxCell>
                <mxCell id="124" style="edgeStyle=orthogonalEdgeStyle;html=1;entryX=0;entryY=0.5;entryDx=0;entryDy=0;" parent="1" source="29" target="120" edge="1">
                    <mxGeometry relative="1" as="geometry"/>
                </mxCell>
                <mxCell id="29" value="A.5&amp;nbsp;Suderinamumo taisyklių valdymas" style="rounded=0;whiteSpace=wrap;html=1;" parent="1" vertex="1">
                    <mxGeometry x="-380" y="520" width="120" height="40" as="geometry"/>
                </mxCell>
                <mxCell id="113" style="edgeStyle=orthogonalEdgeStyle;html=1;entryX=0;entryY=0.5;entryDx=0;entryDy=0;" parent="1" source="30" target="109" edge="1">
                    <mxGeometry relative="1" as="geometry"/>
                </mxCell>
                <mxCell id="114" style="edgeStyle=orthogonalEdgeStyle;html=1;" parent="1" source="30" target="110" edge="1">
                    <mxGeometry relative="1" as="geometry"/>
                </mxCell>
                <mxCell id="115" style="edgeStyle=orthogonalEdgeStyle;html=1;entryX=0;entryY=0.75;entryDx=0;entryDy=0;" parent="1" source="30" target="111" edge="1">
                    <mxGeometry relative="1" as="geometry"/>
                </mxCell>
                <mxCell id="30" value="A.4&amp;nbsp;Kategorijų valdymas" style="rounded=0;whiteSpace=wrap;html=1;" parent="1" vertex="1">
                    <mxGeometry x="-380" y="320" width="120" height="40" as="geometry"/>
                </mxCell>
                <mxCell id="31" value="" style="endArrow=classic;html=1;" parent="1" edge="1">
                    <mxGeometry width="50" height="50" relative="1" as="geometry">
                        <mxPoint x="80" y="-380" as="sourcePoint"/>
                        <mxPoint x="240" y="220" as="targetPoint"/>
                        <Array as="points">
                            <mxPoint x="80" y="220"/>
                        </Array>
                    </mxGeometry>
                </mxCell>
                <mxCell id="45" value="" style="endArrow=classic;html=1;entryX=0.5;entryY=0;entryDx=0;entryDy=0;" parent="1" target="3" edge="1">
                    <mxGeometry width="50" height="50" relative="1" as="geometry">
                        <mxPoint x="180" y="120" as="sourcePoint"/>
                        <mxPoint x="290" y="-70" as="targetPoint"/>
                        <Array as="points">
                            <mxPoint x="300" y="120"/>
                        </Array>
                    </mxGeometry>
                </mxCell>
                <mxCell id="46" value="" style="endArrow=classic;html=1;entryX=0.5;entryY=0;entryDx=0;entryDy=0;" parent="1" target="3" edge="1">
                    <mxGeometry width="50" height="50" relative="1" as="geometry">
                        <mxPoint x="1570" y="120" as="sourcePoint"/>
                        <mxPoint x="530" y="70" as="targetPoint"/>
                        <Array as="points">
                            <mxPoint x="300" y="120"/>
                        </Array>
                    </mxGeometry>
                </mxCell>
                <mxCell id="125" style="edgeStyle=orthogonalEdgeStyle;html=1;" parent="1" source="47" edge="1">
                    <mxGeometry relative="1" as="geometry">
                        <mxPoint x="180" y="120.00000000000023" as="targetPoint"/>
                    </mxGeometry>
                </mxCell>
                <mxCell id="47" value="U.1&amp;nbsp;Prekių peržiūra" style="rounded=0;whiteSpace=wrap;html=1;" parent="1" vertex="1">
                    <mxGeometry x="120" y="-120" width="120" height="40" as="geometry"/>
                </mxCell>
                <mxCell id="129" style="edgeStyle=orthogonalEdgeStyle;html=1;" parent="1" source="49" target="127" edge="1">
                    <mxGeometry relative="1" as="geometry">
                        <Array as="points">
                            <mxPoint x="420" y="-60"/>
                            <mxPoint x="260" y="-60"/>
                        </Array>
                    </mxGeometry>
                </mxCell>
                <mxCell id="130" style="edgeStyle=orthogonalEdgeStyle;html=1;" parent="1" source="49" target="128" edge="1">
                    <mxGeometry relative="1" as="geometry"/>
                </mxCell>
                <mxCell id="134" style="edgeStyle=orthogonalEdgeStyle;html=1;entryX=0.5;entryY=0;entryDx=0;entryDy=0;" parent="1" source="49" target="133" edge="1">
                    <mxGeometry relative="1" as="geometry">
                        <Array as="points">
                            <mxPoint x="420" y="-60"/>
                            <mxPoint x="580" y="-60"/>
                        </Array>
                    </mxGeometry>
                </mxCell>
                <mxCell id="49" value="U.2&amp;nbsp;Krepšelio formavimas&amp;nbsp;" style="rounded=0;whiteSpace=wrap;html=1;" parent="1" vertex="1">
                    <mxGeometry x="360" y="-120" width="120" height="40" as="geometry"/>
                </mxCell>
                <mxCell id="136" style="edgeStyle=orthogonalEdgeStyle;html=1;" parent="1" source="50" edge="1">
                    <mxGeometry relative="1" as="geometry">
                        <mxPoint x="660" y="120" as="targetPoint"/>
                    </mxGeometry>
                </mxCell>
                <mxCell id="50" value="U.3&amp;nbsp;Užsakymo formavimas" style="rounded=0;whiteSpace=wrap;html=1;" parent="1" vertex="1">
                    <mxGeometry x="600" y="-120" width="120" height="40" as="geometry"/>
                </mxCell>
                <mxCell id="137" style="edgeStyle=orthogonalEdgeStyle;html=1;" parent="1" source="51" edge="1">
                    <mxGeometry relative="1" as="geometry">
                        <mxPoint x="820" y="120" as="targetPoint"/>
                    </mxGeometry>
                </mxCell>
                <mxCell id="51" value="U.4&amp;nbsp;Užsakymo peržiūra" style="rounded=0;whiteSpace=wrap;html=1;" parent="1" vertex="1">
                    <mxGeometry x="760" y="-120" width="120" height="40" as="geometry"/>
                </mxCell>
                <mxCell id="141" value="" style="edgeStyle=orthogonalEdgeStyle;html=1;" parent="1" source="52" target="139" edge="1">
                    <mxGeometry relative="1" as="geometry"/>
                </mxCell>
                <mxCell id="142" style="edgeStyle=orthogonalEdgeStyle;html=1;entryX=0.5;entryY=0;entryDx=0;entryDy=0;" parent="1" source="52" target="138" edge="1">
                    <mxGeometry relative="1" as="geometry">
                        <Array as="points">
                            <mxPoint x="1060" y="-60"/>
                            <mxPoint x="900" y="-60"/>
                        </Array>
                    </mxGeometry>
                </mxCell>
                <mxCell id="143" style="edgeStyle=orthogonalEdgeStyle;html=1;entryX=0.5;entryY=0;entryDx=0;entryDy=0;" parent="1" source="52" target="140" edge="1">
                    <mxGeometry relative="1" as="geometry">
                        <Array as="points">
                            <mxPoint x="1060" y="-60"/>
                            <mxPoint x="1220" y="-60"/>
                        </Array>
                    </mxGeometry>
                </mxCell>
                <mxCell id="52" value="U.5&amp;nbsp;Registracijos sistema" style="rounded=0;whiteSpace=wrap;html=1;" parent="1" vertex="1">
                    <mxGeometry x="1000" y="-120" width="120" height="40" as="geometry"/>
                </mxCell>
                <mxCell id="151" style="edgeStyle=orthogonalEdgeStyle;html=1;entryX=0.5;entryY=0;entryDx=0;entryDy=0;" parent="1" source="66" target="147" edge="1">
                    <mxGeometry relative="1" as="geometry"/>
                </mxCell>
                <mxCell id="152" style="edgeStyle=orthogonalEdgeStyle;html=1;entryX=0.5;entryY=0;entryDx=0;entryDy=0;" parent="1" source="66" target="148" edge="1">
                    <mxGeometry relative="1" as="geometry"/>
                </mxCell>
                <mxCell id="66" value="U.6 Prekių filtravimas" style="rounded=0;whiteSpace=wrap;html=1;" parent="1" vertex="1">
                    <mxGeometry x="1400" y="-120" width="120" height="40" as="geometry"/>
                </mxCell>
                <mxCell id="69" value="" style="endArrow=classic;html=1;entryX=1;entryY=0.5;entryDx=0;entryDy=0;" parent="1" target="3" edge="1">
                    <mxGeometry width="50" height="50" relative="1" as="geometry">
                        <mxPoint x="520" y="680" as="sourcePoint"/>
                        <mxPoint x="690" y="280" as="targetPoint"/>
                        <Array as="points">
                            <mxPoint x="520" y="350"/>
                            <mxPoint x="520" y="220"/>
                        </Array>
                    </mxGeometry>
                </mxCell>
                <mxCell id="169" style="edgeStyle=orthogonalEdgeStyle;html=1;entryX=1;entryY=0.5;entryDx=0;entryDy=0;" parent="1" source="70" target="153" edge="1">
                    <mxGeometry relative="1" as="geometry"/>
                </mxCell>
                <mxCell id="70" value="P.1&amp;nbsp;Prisijungimo sistema" style="rounded=0;whiteSpace=wrap;html=1;" parent="1" vertex="1">
                    <mxGeometry x="830" y="240" width="130" height="40" as="geometry"/>
                </mxCell>
                <mxCell id="168" style="edgeStyle=orthogonalEdgeStyle;html=1;entryX=1;entryY=0.5;entryDx=0;entryDy=0;" parent="1" source="71" target="154" edge="1">
                    <mxGeometry relative="1" as="geometry"/>
                </mxCell>
                <mxCell id="172" style="edgeStyle=orthogonalEdgeStyle;html=1;entryX=1;entryY=0.5;entryDx=0;entryDy=0;" parent="1" source="71" target="155" edge="1">
                    <mxGeometry relative="1" as="geometry"/>
                </mxCell>
                <mxCell id="173" style="edgeStyle=orthogonalEdgeStyle;html=1;entryX=1;entryY=0.5;entryDx=0;entryDy=0;" parent="1" source="71" target="157" edge="1">
                    <mxGeometry relative="1" as="geometry"/>
                </mxCell>
                <mxCell id="71" value="P.2&amp;nbsp;Naudotojo duomenų redagavimas" style="rounded=0;whiteSpace=wrap;html=1;" parent="1" vertex="1">
                    <mxGeometry x="825" y="400" width="130" height="40" as="geometry"/>
                </mxCell>
                <mxCell id="167" style="edgeStyle=orthogonalEdgeStyle;html=1;" parent="1" source="72" edge="1">
                    <mxGeometry relative="1" as="geometry">
                        <mxPoint x="520" y="550" as="targetPoint"/>
                    </mxGeometry>
                </mxCell>
                <mxCell id="72" value="P.3 Paskyros šalinimas" style="rounded=0;whiteSpace=wrap;html=1;" parent="1" vertex="1">
                    <mxGeometry x="830" y="530" width="130" height="40" as="geometry"/>
                </mxCell>
                <mxCell id="170" style="edgeStyle=orthogonalEdgeStyle;html=1;entryX=1;entryY=0.5;entryDx=0;entryDy=0;" parent="1" source="73" target="158" edge="1">
                    <mxGeometry relative="1" as="geometry"/>
                </mxCell>
                <mxCell id="171" style="edgeStyle=orthogonalEdgeStyle;html=1;entryX=1;entryY=0.5;entryDx=0;entryDy=0;" parent="1" source="73" target="156" edge="1">
                    <mxGeometry relative="1" as="geometry"/>
                </mxCell>
                <mxCell id="73" value="P.4&amp;nbsp;Įsiminti prekę" style="rounded=0;whiteSpace=wrap;html=1;" parent="1" vertex="1">
                    <mxGeometry x="830" y="620" width="130" height="40" as="geometry"/>
                </mxCell>
                <mxCell id="94" value="Keičia, pataiso&lt;br&gt;prekės informaciją" style="edgeStyle=orthogonalEdgeStyle;html=1;" parent="1" source="84" edge="1">
                    <mxGeometry x="0.0769" y="20" relative="1" as="geometry">
                        <mxPoint x="80" y="-300" as="targetPoint"/>
                        <mxPoint as="offset"/>
                    </mxGeometry>
                </mxCell>
                <mxCell id="84" value="A.1.2&amp;nbsp;Prekės informacijos redagavimas" style="rounded=0;whiteSpace=wrap;html=1;" parent="1" vertex="1">
                    <mxGeometry x="-200" y="-320" width="150" height="40" as="geometry"/>
                </mxCell>
                <mxCell id="93" value="Prideda nauja &lt;br&gt;prekę" style="edgeStyle=orthogonalEdgeStyle;html=1;" parent="1" source="85" edge="1">
                    <mxGeometry x="0.0769" y="20" relative="1" as="geometry">
                        <mxPoint x="80" y="-380" as="targetPoint"/>
                        <mxPoint as="offset"/>
                    </mxGeometry>
                </mxCell>
                <mxCell id="85" value="A.1.1&amp;nbsp;Naujų prekių pridėjimas" style="rounded=0;whiteSpace=wrap;html=1;" parent="1" vertex="1">
                    <mxGeometry x="-200" y="-400" width="150" height="40" as="geometry"/>
                </mxCell>
                <mxCell id="95" value="Keičia prekės&lt;br&gt;nuotraukų sudėtį" style="edgeStyle=orthogonalEdgeStyle;html=1;" parent="1" source="86" edge="1">
                    <mxGeometry x="0.0769" y="20" relative="1" as="geometry">
                        <mxPoint x="80" y="-220" as="targetPoint"/>
                        <mxPoint as="offset"/>
                    </mxGeometry>
                </mxCell>
                <mxCell id="86" value="A.1.3&amp;nbsp;Prekių nuotraukų valdymas" style="rounded=0;whiteSpace=wrap;html=1;" parent="1" vertex="1">
                    <mxGeometry x="-200" y="-240" width="150" height="40" as="geometry"/>
                </mxCell>
                <mxCell id="96" value="Formuojama,&lt;br&gt;keičiama prekės&lt;br&gt;specifikacija" style="edgeStyle=orthogonalEdgeStyle;html=1;" parent="1" edge="1">
                    <mxGeometry x="0.0769" y="30" relative="1" as="geometry">
                        <mxPoint x="80" y="-140" as="targetPoint"/>
                        <mxPoint x="-49.999999999999886" y="-140" as="sourcePoint"/>
                        <mxPoint as="offset"/>
                    </mxGeometry>
                </mxCell>
                <mxCell id="87" value="A.1.4&amp;nbsp;Prekės specifikacijos formavimas" style="rounded=0;whiteSpace=wrap;html=1;" parent="1" vertex="1">
                    <mxGeometry x="-200" y="-160" width="150" height="40" as="geometry"/>
                </mxCell>
                <mxCell id="99" value="Užšaldoma paskyra" style="edgeStyle=orthogonalEdgeStyle;html=1;" parent="1" source="97" edge="1">
                    <mxGeometry x="0.0769" y="10" relative="1" as="geometry">
                        <mxPoint x="80" y="-60" as="targetPoint"/>
                        <mxPoint as="offset"/>
                    </mxGeometry>
                </mxCell>
                <mxCell id="97" value="A.2.1&amp;nbsp;Paskyros užblokavimas" style="rounded=0;whiteSpace=wrap;html=1;" parent="1" vertex="1">
                    <mxGeometry x="-200" y="-80" width="150" height="40" as="geometry"/>
                </mxCell>
                <mxCell id="100" value="Keičiamas kito&lt;br&gt;naudotojo vaidmuo" style="edgeStyle=orthogonalEdgeStyle;html=1;" parent="1" source="98" edge="1">
                    <mxGeometry x="0.0769" y="20" relative="1" as="geometry">
                        <mxPoint x="80" y="20" as="targetPoint"/>
                        <mxPoint as="offset"/>
                    </mxGeometry>
                </mxCell>
                <mxCell id="98" value="A.2.2&amp;nbsp;Paskyros vaidmens keitimas" style="rounded=0;whiteSpace=wrap;html=1;" parent="1" vertex="1">
                    <mxGeometry x="-200" width="150" height="40" as="geometry"/>
                </mxCell>
                <mxCell id="107" value="Peržiūrimas&lt;br&gt;užsakymas" style="edgeStyle=orthogonalEdgeStyle;html=1;" parent="1" source="103" edge="1">
                    <mxGeometry x="0.0769" y="20" relative="1" as="geometry">
                        <mxPoint x="80" y="100" as="targetPoint"/>
                        <mxPoint as="offset"/>
                    </mxGeometry>
                </mxCell>
                <mxCell id="103" value="A.3.1&amp;nbsp;Užsakymų peržiūra" style="rounded=0;whiteSpace=wrap;html=1;" parent="1" vertex="1">
                    <mxGeometry x="-200" y="80" width="150" height="40" as="geometry"/>
                </mxCell>
                <mxCell id="108" value="Keičiamas užsakymo&lt;br&gt;statusas" style="edgeStyle=orthogonalEdgeStyle;html=1;" parent="1" source="104" edge="1">
                    <mxGeometry x="0.0769" y="20" relative="1" as="geometry">
                        <mxPoint x="80" y="180" as="targetPoint"/>
                        <mxPoint as="offset"/>
                    </mxGeometry>
                </mxCell>
                <mxCell id="104" value="A.3.2&amp;nbsp;Užsakymų statuso keitimas" style="rounded=0;whiteSpace=wrap;html=1;" parent="1" vertex="1">
                    <mxGeometry x="-200" y="160" width="150" height="40" as="geometry"/>
                </mxCell>
                <mxCell id="116" value="Pridedama nauja&lt;br&gt;kategorija" style="edgeStyle=orthogonalEdgeStyle;html=1;" parent="1" source="109" edge="1">
                    <mxGeometry x="0.0698" y="20" relative="1" as="geometry">
                        <mxPoint x="79.99999999999977" y="260" as="targetPoint"/>
                        <mxPoint as="offset"/>
                    </mxGeometry>
                </mxCell>
                <mxCell id="109" value="A.4.1&amp;nbsp;Kategorijų pridėjimas" style="rounded=0;whiteSpace=wrap;html=1;" parent="1" vertex="1">
                    <mxGeometry x="-199" y="240" width="150" height="40" as="geometry"/>
                </mxCell>
                <mxCell id="117" value="Pašalinama&lt;br&gt;kategorija" style="edgeStyle=orthogonalEdgeStyle;html=1;" parent="1" source="110" edge="1">
                    <mxGeometry x="0.0769" y="20" relative="1" as="geometry">
                        <mxPoint x="79.99999999999977" y="340" as="targetPoint"/>
                        <mxPoint as="offset"/>
                    </mxGeometry>
                </mxCell>
                <mxCell id="110" value="A.4.2&amp;nbsp;Kategorijų šalinimas" style="rounded=0;whiteSpace=wrap;html=1;" parent="1" vertex="1">
                    <mxGeometry x="-200" y="320" width="150" height="40" as="geometry"/>
                </mxCell>
                <mxCell id="118" value="Redaguojama&lt;br&gt;kategorija" style="edgeStyle=orthogonalEdgeStyle;html=1;" parent="1" source="111" edge="1">
                    <mxGeometry x="0.0769" y="20" relative="1" as="geometry">
                        <mxPoint x="79.99999999999977" y="420" as="targetPoint"/>
                        <mxPoint as="offset"/>
                    </mxGeometry>
                </mxCell>
                <mxCell id="111" value="A.4.3&amp;nbsp;Kategorijų redagavimas" style="rounded=0;whiteSpace=wrap;html=1;" parent="1" vertex="1">
                    <mxGeometry x="-200" y="400" width="150" height="40" as="geometry"/>
                </mxCell>
                <mxCell id="112" value="" style="endArrow=classic;html=1;" parent="1" edge="1">
                    <mxGeometry width="50" height="50" relative="1" as="geometry">
                        <mxPoint x="80" y="580" as="sourcePoint"/>
                        <mxPoint x="240" y="220" as="targetPoint"/>
                        <Array as="points">
                            <mxPoint x="80" y="220"/>
                        </Array>
                    </mxGeometry>
                </mxCell>
                <mxCell id="121" value="Pridedama nauja&lt;br&gt;suderinamumo&amp;nbsp;&lt;br&gt;tikrinimo taisyklė" style="edgeStyle=orthogonalEdgeStyle;html=1;" parent="1" source="119" edge="1">
                    <mxGeometry x="0.0769" y="27" relative="1" as="geometry">
                        <mxPoint x="79.99999999999977" y="497" as="targetPoint"/>
                        <mxPoint as="offset"/>
                    </mxGeometry>
                </mxCell>
                <mxCell id="119" value="A.5.1&amp;nbsp;Suderinamumo taisyklių pridėjimas" style="rounded=0;whiteSpace=wrap;html=1;" parent="1" vertex="1">
                    <mxGeometry x="-200" y="477" width="150" height="40" as="geometry"/>
                </mxCell>
                <mxCell id="122" value="Pašalinama &lt;br&gt;suderinamumo&amp;nbsp;&lt;br style=&quot;border-color: var(--border-color);&quot;&gt;tikrinimo taisyklė" style="edgeStyle=orthogonalEdgeStyle;html=1;" parent="1" source="120" edge="1">
                    <mxGeometry x="0.0769" y="30" relative="1" as="geometry">
                        <mxPoint x="79.99999999999977" y="580" as="targetPoint"/>
                        <mxPoint as="offset"/>
                    </mxGeometry>
                </mxCell>
                <mxCell id="120" value="A.5.2&amp;nbsp;Suderinamumo taisyklių šalinimas" style="rounded=0;whiteSpace=wrap;html=1;" parent="1" vertex="1">
                    <mxGeometry x="-200" y="560" width="150" height="40" as="geometry"/>
                </mxCell>
                <mxCell id="131" value="Pridedama nauja prekė&lt;br&gt;prie krepšelio prekių&lt;br&gt;sąrašo" style="edgeStyle=orthogonalEdgeStyle;html=1;" parent="1" source="127" edge="1">
                    <mxGeometry relative="1" as="geometry">
                        <mxPoint x="260" y="120" as="targetPoint"/>
                    </mxGeometry>
                </mxCell>
                <mxCell id="127" value="U.2.1 Prekių pridėjimas į krepšeli" style="rounded=0;whiteSpace=wrap;html=1;" parent="1" vertex="1">
                    <mxGeometry x="200" y="-40" width="120" height="40" as="geometry"/>
                </mxCell>
                <mxCell id="132" value="Iš krepšelio &lt;br&gt;pašalinama prekė" style="edgeStyle=orthogonalEdgeStyle;html=1;" parent="1" source="128" edge="1">
                    <mxGeometry relative="1" as="geometry">
                        <mxPoint x="420" y="120" as="targetPoint"/>
                    </mxGeometry>
                </mxCell>
                <mxCell id="128" value="U.2.2&amp;nbsp;Prekių šalinimas iš krepšelio" style="rounded=0;whiteSpace=wrap;html=1;" parent="1" vertex="1">
                    <mxGeometry x="360" y="-40" width="120" height="40" as="geometry"/>
                </mxCell>
                <mxCell id="135" value="Keičiamas norimas &lt;br&gt;produkto kiekis" style="edgeStyle=orthogonalEdgeStyle;html=1;" parent="1" source="133" edge="1">
                    <mxGeometry relative="1" as="geometry">
                        <mxPoint x="580" y="120" as="targetPoint"/>
                    </mxGeometry>
                </mxCell>
                <mxCell id="133" value="U.2.3&amp;nbsp;Prekių kiekio keitimas" style="rounded=0;whiteSpace=wrap;html=1;" parent="1" vertex="1">
                    <mxGeometry x="520" y="-40" width="120" height="40" as="geometry"/>
                </mxCell>
                <mxCell id="144" value="Sukuriama &lt;br&gt;nauja paskyra" style="edgeStyle=orthogonalEdgeStyle;html=1;" parent="1" source="138" edge="1">
                    <mxGeometry relative="1" as="geometry">
                        <mxPoint x="900" y="120" as="targetPoint"/>
                    </mxGeometry>
                </mxCell>
                <mxCell id="138" value="U.5.1&amp;nbsp;Registracija" style="rounded=0;whiteSpace=wrap;html=1;" parent="1" vertex="1">
                    <mxGeometry x="840" y="-40" width="120" height="40" as="geometry"/>
                </mxCell>
                <mxCell id="145" value="Prisijungiama prie&lt;br&gt;egzistuojančios paskyros" style="edgeStyle=orthogonalEdgeStyle;html=1;" parent="1" source="139" edge="1">
                    <mxGeometry relative="1" as="geometry">
                        <mxPoint x="1060" y="120" as="targetPoint"/>
                    </mxGeometry>
                </mxCell>
                <mxCell id="139" value="U.5.2&amp;nbsp;Prisijungimas" style="rounded=0;whiteSpace=wrap;html=1;" parent="1" vertex="1">
                    <mxGeometry x="1000" y="-40" width="120" height="40" as="geometry"/>
                </mxCell>
                <mxCell id="146" value="Atkuriamas pamirštas&lt;br&gt;slaptažodis" style="edgeStyle=orthogonalEdgeStyle;html=1;" parent="1" source="140" edge="1">
                    <mxGeometry relative="1" as="geometry">
                        <mxPoint x="1220" y="120" as="targetPoint"/>
                    </mxGeometry>
                </mxCell>
                <mxCell id="140" value="U.5.3&amp;nbsp;Slaptažodžio atkūrimas" style="rounded=0;whiteSpace=wrap;html=1;" parent="1" vertex="1">
                    <mxGeometry x="1160" y="-40" width="120" height="40" as="geometry"/>
                </mxCell>
                <mxCell id="149" value="Paieška išmeta visas&lt;br&gt;prekes su raktiniu&lt;br&gt;žodžiu" style="edgeStyle=orthogonalEdgeStyle;html=1;" parent="1" source="147" edge="1">
                    <mxGeometry relative="1" as="geometry">
                        <mxPoint x="1380" y="120" as="targetPoint"/>
                    </mxGeometry>
                </mxCell>
                <mxCell id="147" value="U.6.1&amp;nbsp;Prekės paieška pagal pavadinimą" style="rounded=0;whiteSpace=wrap;html=1;" parent="1" vertex="1">
                    <mxGeometry x="1320" y="-40" width="120" height="40" as="geometry"/>
                </mxCell>
                <mxCell id="150" value="&lt;p&gt;Išfiltruojami su filtravimo&lt;br&gt;parametrais nesusijusios&lt;br&gt;prekės&lt;/p&gt;" style="edgeStyle=orthogonalEdgeStyle;html=1;" parent="1" source="148" edge="1">
                    <mxGeometry relative="1" as="geometry">
                        <mxPoint x="1570" y="120" as="targetPoint"/>
                        <mxPoint as="offset"/>
                    </mxGeometry>
                </mxCell>
                <mxCell id="148" value="U.6.2&amp;nbsp;Prekės filtravimas pagal kainą ir specifikacijos duomenis" style="rounded=0;whiteSpace=wrap;html=1;" parent="1" vertex="1">
                    <mxGeometry x="1480" y="-40" width="180" height="40" as="geometry"/>
                </mxCell>
                <mxCell id="164" value="Baigiama&lt;br&gt;prisijungimo&lt;br&gt;sesija" style="edgeStyle=orthogonalEdgeStyle;html=1;" parent="1" source="153" edge="1">
                    <mxGeometry y="-30" relative="1" as="geometry">
                        <mxPoint x="520" y="260" as="targetPoint"/>
                        <mxPoint as="offset"/>
                    </mxGeometry>
                </mxCell>
                <mxCell id="153" value="P.1.1&amp;nbsp;Atsijungimas" style="rounded=0;whiteSpace=wrap;html=1;" parent="1" vertex="1">
                    <mxGeometry x="640" y="240" width="130" height="40" as="geometry"/>
                </mxCell>
                <mxCell id="163" value="Pakeičiamas naudotojo&lt;br&gt;el. paštas" style="edgeStyle=orthogonalEdgeStyle;html=1;" parent="1" source="154" edge="1">
                    <mxGeometry y="-20" relative="1" as="geometry">
                        <mxPoint x="520" y="340" as="targetPoint"/>
                        <mxPoint as="offset"/>
                    </mxGeometry>
                </mxCell>
                <mxCell id="154" value="P.2.1&amp;nbsp;Elektroninio pašto adreso redagavimas" style="rounded=0;whiteSpace=wrap;html=1;" parent="1" vertex="1">
                    <mxGeometry x="640" y="320" width="130" height="40" as="geometry"/>
                </mxCell>
                <mxCell id="162" value="Pakeičiami naudotojo &lt;br&gt;duomenys" style="edgeStyle=orthogonalEdgeStyle;html=1;" parent="1" source="155" edge="1">
                    <mxGeometry y="-20" relative="1" as="geometry">
                        <mxPoint x="520" y="420" as="targetPoint"/>
                        <mxPoint as="offset"/>
                    </mxGeometry>
                </mxCell>
                <mxCell id="155" value="P.2.2&amp;nbsp;Naudoto vardo redagavimas" style="rounded=0;whiteSpace=wrap;html=1;" parent="1" vertex="1">
                    <mxGeometry x="640" y="400" width="130" height="40" as="geometry"/>
                </mxCell>
                <mxCell id="159" value="Matomos visos&lt;br&gt;įsimintos prekės" style="edgeStyle=orthogonalEdgeStyle;html=1;" parent="1" source="156" edge="1">
                    <mxGeometry y="-20" relative="1" as="geometry">
                        <mxPoint x="520" y="680" as="targetPoint"/>
                        <mxPoint as="offset"/>
                    </mxGeometry>
                </mxCell>
                <mxCell id="156" value="P.4.2&amp;nbsp;Peržiūrėti įsimintas prekes" style="rounded=0;whiteSpace=wrap;html=1;" parent="1" vertex="1">
                    <mxGeometry x="640" y="660" width="130" height="40" as="geometry"/>
                </mxCell>
                <mxCell id="161" value="Pakeičiamas naudotojo &lt;br&gt;slaptažodis" style="edgeStyle=orthogonalEdgeStyle;html=1;" parent="1" source="157" edge="1">
                    <mxGeometry y="-27" relative="1" as="geometry">
                        <mxPoint x="520" y="497" as="targetPoint"/>
                        <mxPoint as="offset"/>
                    </mxGeometry>
                </mxCell>
                <mxCell id="157" value="P.2.3&amp;nbsp;Slaptažodžio keitimas" style="rounded=0;whiteSpace=wrap;html=1;" parent="1" vertex="1">
                    <mxGeometry x="640" y="477" width="130" height="40" as="geometry"/>
                </mxCell>
                <mxCell id="160" value="Pridedama prekė&lt;br&gt;prie įsimintų prekių" style="edgeStyle=orthogonalEdgeStyle;html=1;" parent="1" source="158" edge="1">
                    <mxGeometry y="-20" relative="1" as="geometry">
                        <mxPoint x="520" y="600" as="targetPoint"/>
                        <mxPoint as="offset"/>
                    </mxGeometry>
                </mxCell>
                <mxCell id="158" value="P.4.1&amp;nbsp;Pridėti prekę prie įsimintų prekių" style="rounded=0;whiteSpace=wrap;html=1;" parent="1" vertex="1">
                    <mxGeometry x="640" y="580" width="130" height="40" as="geometry"/>
                </mxCell>
            </root>
        </mxGraphModel>
    </diagram>
</mxfile>